<mxfile host="app.diagrams.net" agent="Mozilla/5.0 (Windows NT 10.0; Win64; x64) AppleWebKit/537.36 (KHTML, like Gecko) Chrome/141.0.0.0 Safari/537.36" version="28.2.5">
  <diagram name="Page-1" id="b5K2YEH728dkqBVw2DPO">
    <mxGraphModel dx="1042" dy="534" grid="1" gridSize="10" guides="1" tooltips="1" connect="1" arrows="1" fold="1" page="1" pageScale="1" pageWidth="850" pageHeight="1100" math="0" shadow="0">
      <root>
        <mxCell id="0" />
        <mxCell id="1" parent="0" />
        <mxCell id="N1geJuRReeoAiHL-jNJ9-96" value="" style="rounded=0;whiteSpace=wrap;html=1;opacity=30;movable=1;resizable=1;rotatable=1;deletable=1;editable=1;locked=0;connectable=1;dashed=1;fillColor=#ffe6cc;strokeColor=#d79b00;" parent="1" vertex="1">
          <mxGeometry x="580" y="150" width="90" height="120" as="geometry" />
        </mxCell>
        <mxCell id="N1geJuRReeoAiHL-jNJ9-10" style="edgeStyle=orthogonalEdgeStyle;rounded=0;orthogonalLoop=1;jettySize=auto;html=1;entryX=0;entryY=0.5;entryDx=0;entryDy=0;fillColor=#e51400;strokeColor=#B20000;strokeWidth=2;" parent="1" source="N1geJuRReeoAiHL-jNJ9-1" target="N1geJuRReeoAiHL-jNJ9-2" edge="1">
          <mxGeometry relative="1" as="geometry" />
        </mxCell>
        <mxCell id="N1geJuRReeoAiHL-jNJ9-1" value="" style="rounded=1;whiteSpace=wrap;html=1;fillColor=#d5e8d4;strokeColor=#82b366;gradientColor=none;" parent="1" vertex="1">
          <mxGeometry x="210" y="50" width="10" height="80" as="geometry" />
        </mxCell>
        <mxCell id="N1geJuRReeoAiHL-jNJ9-11" style="edgeStyle=orthogonalEdgeStyle;rounded=0;orthogonalLoop=1;jettySize=auto;html=1;entryX=0.5;entryY=0;entryDx=0;entryDy=0;fillColor=#6a00ff;strokeColor=#3700CC;strokeWidth=2;" parent="1" source="N1geJuRReeoAiHL-jNJ9-2" target="N1geJuRReeoAiHL-jNJ9-3" edge="1">
          <mxGeometry relative="1" as="geometry" />
        </mxCell>
        <mxCell id="N1geJuRReeoAiHL-jNJ9-2" value="" style="rounded=1;whiteSpace=wrap;html=1;gradientDirection=east;fillColor=#d5e8d4;strokeColor=#82b366;gradientColor=none;" parent="1" vertex="1">
          <mxGeometry x="240" y="50" width="20" height="80" as="geometry" />
        </mxCell>
        <mxCell id="N1geJuRReeoAiHL-jNJ9-9" style="edgeStyle=orthogonalEdgeStyle;rounded=0;orthogonalLoop=1;jettySize=auto;html=1;fillColor=#e51400;strokeColor=#B20000;strokeWidth=2;" parent="1" source="N1geJuRReeoAiHL-jNJ9-3" target="N1geJuRReeoAiHL-jNJ9-5" edge="1">
          <mxGeometry relative="1" as="geometry" />
        </mxCell>
        <mxCell id="N1geJuRReeoAiHL-jNJ9-3" value="" style="rounded=1;whiteSpace=wrap;html=1;fillColor=#e1d5e7;strokeColor=#9673a6;" parent="1" vertex="1">
          <mxGeometry x="235" y="170" width="30" height="40" as="geometry" />
        </mxCell>
        <mxCell id="N1geJuRReeoAiHL-jNJ9-24" style="edgeStyle=orthogonalEdgeStyle;rounded=0;orthogonalLoop=1;jettySize=auto;html=1;entryX=0.25;entryY=0;entryDx=0;entryDy=0;strokeWidth=2;fillColor=#6a00ff;strokeColor=#3700CC;" parent="1" source="N1geJuRReeoAiHL-jNJ9-5" target="N1geJuRReeoAiHL-jNJ9-23" edge="1">
          <mxGeometry relative="1" as="geometry">
            <mxPoint x="310" y="250" as="targetPoint" />
          </mxGeometry>
        </mxCell>
        <mxCell id="N1geJuRReeoAiHL-jNJ9-5" value="" style="rounded=1;whiteSpace=wrap;html=1;fillColor=#e1d5e7;strokeColor=#9673a6;" parent="1" vertex="1">
          <mxGeometry x="290" y="170" width="40" height="40" as="geometry" />
        </mxCell>
        <mxCell id="N1geJuRReeoAiHL-jNJ9-41" style="edgeStyle=orthogonalEdgeStyle;rounded=0;orthogonalLoop=1;jettySize=auto;html=1;entryX=0.5;entryY=1;entryDx=0;entryDy=0;fillColor=#6a00ff;strokeColor=#3700CC;strokeWidth=2;exitX=0.75;exitY=0;exitDx=0;exitDy=0;" parent="1" source="N1geJuRReeoAiHL-jNJ9-23" target="N1geJuRReeoAiHL-jNJ9-31" edge="1">
          <mxGeometry relative="1" as="geometry" />
        </mxCell>
        <mxCell id="N1geJuRReeoAiHL-jNJ9-23" value="" style="rounded=1;whiteSpace=wrap;html=1;fillColor=none;strokeColor=#009999;" parent="1" vertex="1">
          <mxGeometry x="320" y="250" width="140" height="40" as="geometry" />
        </mxCell>
        <mxCell id="N1geJuRReeoAiHL-jNJ9-45" style="edgeStyle=orthogonalEdgeStyle;rounded=0;orthogonalLoop=1;jettySize=auto;html=1;entryX=0.5;entryY=1;entryDx=0;entryDy=0;strokeWidth=2;fillColor=#6a00ff;strokeColor=#3700CC;" parent="1" source="N1geJuRReeoAiHL-jNJ9-30" target="N1geJuRReeoAiHL-jNJ9-44" edge="1">
          <mxGeometry relative="1" as="geometry" />
        </mxCell>
        <mxCell id="N1geJuRReeoAiHL-jNJ9-30" value="" style="rounded=1;whiteSpace=wrap;html=1;fillColor=#e1d5e7;strokeColor=#9673a6;" parent="1" vertex="1">
          <mxGeometry x="513" y="170" width="30" height="40" as="geometry" />
        </mxCell>
        <mxCell id="N1geJuRReeoAiHL-jNJ9-32" style="edgeStyle=orthogonalEdgeStyle;rounded=0;orthogonalLoop=1;jettySize=auto;html=1;entryX=0;entryY=0.5;entryDx=0;entryDy=0;strokeWidth=2;fillColor=#e51400;strokeColor=#B20000;" parent="1" source="N1geJuRReeoAiHL-jNJ9-31" target="N1geJuRReeoAiHL-jNJ9-30" edge="1">
          <mxGeometry relative="1" as="geometry" />
        </mxCell>
        <mxCell id="N1geJuRReeoAiHL-jNJ9-31" value="" style="rounded=1;whiteSpace=wrap;html=1;fillColor=#e1d5e7;strokeColor=#9673a6;" parent="1" vertex="1">
          <mxGeometry x="450" y="170" width="40" height="40" as="geometry" />
        </mxCell>
        <mxCell id="N1geJuRReeoAiHL-jNJ9-47" style="edgeStyle=orthogonalEdgeStyle;rounded=0;orthogonalLoop=1;jettySize=auto;html=1;entryX=0;entryY=0.5;entryDx=0;entryDy=0;fillColor=#e51400;strokeColor=#B20000;strokeWidth=2;" parent="1" source="N1geJuRReeoAiHL-jNJ9-44" target="N1geJuRReeoAiHL-jNJ9-46" edge="1">
          <mxGeometry relative="1" as="geometry" />
        </mxCell>
        <mxCell id="N1geJuRReeoAiHL-jNJ9-44" value="" style="rounded=1;whiteSpace=wrap;html=1;fillColor=#d5e8d4;strokeColor=#82b366;gradientColor=none;" parent="1" vertex="1">
          <mxGeometry x="518" y="50" width="20" height="80" as="geometry" />
        </mxCell>
        <mxCell id="N1geJuRReeoAiHL-jNJ9-51" value="" style="edgeStyle=orthogonalEdgeStyle;rounded=0;orthogonalLoop=1;jettySize=auto;html=1;" parent="1" source="N1geJuRReeoAiHL-jNJ9-46" target="N1geJuRReeoAiHL-jNJ9-49" edge="1">
          <mxGeometry relative="1" as="geometry" />
        </mxCell>
        <mxCell id="N1geJuRReeoAiHL-jNJ9-46" value="" style="rounded=1;whiteSpace=wrap;html=1;fillColor=#d5e8d4;strokeColor=#82b366;gradientColor=none;" parent="1" vertex="1">
          <mxGeometry x="560" y="50" width="10" height="80" as="geometry" />
        </mxCell>
        <mxCell id="N1geJuRReeoAiHL-jNJ9-109" value="" style="edgeStyle=orthogonalEdgeStyle;rounded=0;orthogonalLoop=1;jettySize=auto;html=1;" parent="1" source="N1geJuRReeoAiHL-jNJ9-49" edge="1">
          <mxGeometry relative="1" as="geometry">
            <mxPoint x="660" y="90" as="targetPoint" />
          </mxGeometry>
        </mxCell>
        <mxCell id="N1geJuRReeoAiHL-jNJ9-49" value="" style="ellipse;whiteSpace=wrap;html=1;aspect=fixed;fillColor=#fad7ac;strokeColor=#b46504;" parent="1" vertex="1">
          <mxGeometry x="590" y="65" width="50" height="50" as="geometry" />
        </mxCell>
        <mxCell id="N1geJuRReeoAiHL-jNJ9-52" value="" style="endArrow=classic;html=1;rounded=0;entryX=0;entryY=0.5;entryDx=0;entryDy=0;dashed=1;fillColor=#cdeb8b;strokeColor=#009900;strokeWidth=2;exitX=1;exitY=0.5;exitDx=0;exitDy=0;" parent="1" source="N1geJuRReeoAiHL-jNJ9-2" target="N1geJuRReeoAiHL-jNJ9-44" edge="1">
          <mxGeometry relative="1" as="geometry">
            <mxPoint x="262" y="90" as="sourcePoint" />
            <mxPoint x="440" y="80" as="targetPoint" />
          </mxGeometry>
        </mxCell>
        <mxCell id="N1geJuRReeoAiHL-jNJ9-53" value="&lt;font style=&quot;font-size: 14px;&quot;&gt;Skip&lt;/font&gt;&lt;div&gt;&lt;font style=&quot;font-size: 14px;&quot;&gt;Connection&amp;nbsp;&lt;/font&gt;&lt;/div&gt;" style="edgeLabel;resizable=0;html=1;;align=center;verticalAlign=middle;" parent="N1geJuRReeoAiHL-jNJ9-52" connectable="0" vertex="1">
          <mxGeometry relative="1" as="geometry">
            <mxPoint x="1" as="offset" />
          </mxGeometry>
        </mxCell>
        <mxCell id="N1geJuRReeoAiHL-jNJ9-55" value="" style="endArrow=classic;html=1;rounded=0;exitX=1;exitY=0.5;exitDx=0;exitDy=0;entryX=0;entryY=0.5;entryDx=0;entryDy=0;dashed=1;strokeColor=#009900;strokeWidth=2;" parent="1" source="N1geJuRReeoAiHL-jNJ9-5" target="N1geJuRReeoAiHL-jNJ9-31" edge="1">
          <mxGeometry relative="1" as="geometry">
            <mxPoint x="340" y="340" as="sourcePoint" />
            <mxPoint x="598" y="340" as="targetPoint" />
          </mxGeometry>
        </mxCell>
        <mxCell id="N1geJuRReeoAiHL-jNJ9-56" value="&lt;font style=&quot;font-size: 14px;&quot;&gt;Skip&lt;/font&gt;&lt;div&gt;&lt;font style=&quot;font-size: 14px;&quot;&gt;Connection&amp;nbsp;&lt;/font&gt;&lt;/div&gt;" style="edgeLabel;resizable=0;html=1;;align=center;verticalAlign=middle;" parent="N1geJuRReeoAiHL-jNJ9-55" connectable="0" vertex="1">
          <mxGeometry relative="1" as="geometry">
            <mxPoint as="offset" />
          </mxGeometry>
        </mxCell>
        <mxCell id="N1geJuRReeoAiHL-jNJ9-65" value="" style="rounded=1;whiteSpace=wrap;html=1;fillColor=#b0e3e6;strokeColor=#0e8088;" parent="1" vertex="1">
          <mxGeometry x="330" y="260" width="30" height="20" as="geometry" />
        </mxCell>
        <mxCell id="N1geJuRReeoAiHL-jNJ9-66" value="" style="rounded=1;whiteSpace=wrap;html=1;fillColor=#b0e3e6;strokeColor=#0e8088;" parent="1" vertex="1">
          <mxGeometry x="360" y="260" width="30" height="20" as="geometry" />
        </mxCell>
        <mxCell id="N1geJuRReeoAiHL-jNJ9-67" value="" style="rounded=1;whiteSpace=wrap;html=1;fillColor=#b0e3e6;strokeColor=#0e8088;" parent="1" vertex="1">
          <mxGeometry x="390" y="260" width="30" height="20" as="geometry" />
        </mxCell>
        <mxCell id="N1geJuRReeoAiHL-jNJ9-68" value="" style="rounded=1;whiteSpace=wrap;html=1;fillColor=#b0e3e6;strokeColor=#0e8088;" parent="1" vertex="1">
          <mxGeometry x="420" y="260" width="30" height="20" as="geometry" />
        </mxCell>
        <mxCell id="N1geJuRReeoAiHL-jNJ9-74" value="&lt;font style=&quot;font-size: 15px;&quot;&gt;Norm&lt;/font&gt;" style="text;html=1;align=center;verticalAlign=middle;resizable=0;points=[];autosize=1;strokeColor=none;fillColor=none;" parent="1" vertex="1">
          <mxGeometry x="585" y="75" width="60" height="30" as="geometry" />
        </mxCell>
        <mxCell id="N1geJuRReeoAiHL-jNJ9-80" value="" style="endArrow=classic;html=1;rounded=0;strokeWidth=2;fillColor=#6a00ff;strokeColor=#3700CC;" parent="1" edge="1">
          <mxGeometry width="50" height="50" relative="1" as="geometry">
            <mxPoint x="585.5" y="262.5" as="sourcePoint" />
            <mxPoint x="585" y="237.5" as="targetPoint" />
          </mxGeometry>
        </mxCell>
        <mxCell id="N1geJuRReeoAiHL-jNJ9-83" value="" style="endArrow=classic;html=1;rounded=0;strokeWidth=2;fillColor=#6a00ff;strokeColor=#3700CC;" parent="1" edge="1">
          <mxGeometry width="50" height="50" relative="1" as="geometry">
            <mxPoint x="585.5" y="197.5" as="sourcePoint" />
            <mxPoint x="585" y="222.5" as="targetPoint" />
          </mxGeometry>
        </mxCell>
        <mxCell id="N1geJuRReeoAiHL-jNJ9-84" value="&lt;div&gt;&lt;font&gt;Average&lt;/font&gt;&lt;/div&gt;&lt;div&gt;&lt;font&gt;P&lt;span style=&quot;background-color: transparent; color: light-dark(rgb(0, 0, 0), rgb(255, 255, 255));&quot;&gt;ooling&lt;/span&gt;&lt;/font&gt;&lt;/div&gt;" style="text;html=1;align=center;verticalAlign=middle;resizable=0;points=[];autosize=1;strokeColor=none;fillColor=none;" parent="1" vertex="1">
          <mxGeometry x="590" y="190" width="70" height="40" as="geometry" />
        </mxCell>
        <mxCell id="N1geJuRReeoAiHL-jNJ9-88" value="&lt;font&gt;Linear&lt;/font&gt;&lt;div&gt;&lt;font&gt;Interpolation&lt;/font&gt;&lt;/div&gt;" style="text;html=1;align=center;verticalAlign=middle;resizable=0;points=[];autosize=1;strokeColor=none;fillColor=none;" parent="1" vertex="1">
          <mxGeometry x="585" y="230" width="90" height="40" as="geometry" />
        </mxCell>
        <mxCell id="N1geJuRReeoAiHL-jNJ9-89" value="" style="endArrow=classic;html=1;rounded=0;fillColor=#e51400;strokeColor=#B20000;strokeWidth=2;" parent="1" edge="1">
          <mxGeometry width="50" height="50" relative="1" as="geometry">
            <mxPoint x="580" y="175" as="sourcePoint" />
            <mxPoint x="600" y="175" as="targetPoint" />
          </mxGeometry>
        </mxCell>
        <mxCell id="N1geJuRReeoAiHL-jNJ9-90" value="&lt;font&gt;Convolution&lt;/font&gt;" style="text;html=1;align=center;verticalAlign=middle;resizable=0;points=[];autosize=1;strokeColor=none;fillColor=none;" parent="1" vertex="1">
          <mxGeometry x="590" y="160" width="90" height="30" as="geometry" />
        </mxCell>
        <mxCell id="N1geJuRReeoAiHL-jNJ9-100" value="&lt;font style=&quot;font-size: 15px;&quot;&gt;Steerable&amp;nbsp;&lt;/font&gt;&lt;span style=&quot;font-size: 15px; background-color: transparent; color: light-dark(rgb(0, 0, 0), rgb(255, 255, 255));&quot;&gt;Transformer&lt;/span&gt;&lt;div&gt;&lt;div&gt;&lt;font style=&quot;font-size: 15px;&quot;&gt;Block&lt;/font&gt;&lt;/div&gt;&lt;/div&gt;" style="text;html=1;align=center;verticalAlign=middle;resizable=0;points=[];autosize=1;strokeColor=none;fillColor=none;" parent="1" vertex="1">
          <mxGeometry x="310" y="290" width="170" height="50" as="geometry" />
        </mxCell>
        <mxCell id="N1geJuRReeoAiHL-jNJ9-108" style="edgeStyle=orthogonalEdgeStyle;rounded=0;orthogonalLoop=1;jettySize=auto;html=1;entryX=0;entryY=0.5;entryDx=0;entryDy=0;" parent="1" target="N1geJuRReeoAiHL-jNJ9-1" edge="1">
          <mxGeometry relative="1" as="geometry">
            <mxPoint x="190.79999999999995" y="90" as="sourcePoint" />
          </mxGeometry>
        </mxCell>
        <mxCell id="-MIAi6LLLLKGbu9qMK77-4" value="&lt;font style=&quot;font-size: 18px;&quot;&gt;Image&lt;/font&gt;" style="rounded=1;whiteSpace=wrap;html=1;fillColor=#dae8fc;strokeColor=#6c8ebf;" vertex="1" parent="1">
          <mxGeometry x="130" y="65" width="60" height="50" as="geometry" />
        </mxCell>
        <mxCell id="-MIAi6LLLLKGbu9qMK77-6" value="&lt;font style=&quot;font-size: 18px;&quot;&gt;Logits&lt;/font&gt;" style="rounded=1;whiteSpace=wrap;html=1;fillColor=#dae8fc;strokeColor=#6c8ebf;" vertex="1" parent="1">
          <mxGeometry x="660" y="65" width="60" height="50" as="geometry" />
        </mxCell>
      </root>
    </mxGraphModel>
  </diagram>
</mxfile>
